<svg width="500" height="500" viewBox="0 0 500 500" fill="none" xmlns="http://www.w3.org/2000/svg">
<circle cx="250" cy="250" r="250" fill="#F5F2C9"/>
<path d="M104.643 281.357C112.071 281.357 117.976 283.357 122.357 287.357C126.738 291.167 128.929 296.5 128.929 303.357C128.929 310.214 126.738 315.643 122.357 319.643C117.976 323.452 112.071 325.357 104.643 325.357C97.2143 325.357 91.3096 323.452 86.9286 319.643C82.5477 315.643 80.3572 310.214 80.3572 303.357C80.3572 296.5 82.5477 291.167 86.9286 287.357C91.3096 283.357 97.2143 281.357 104.643 281.357Z" fill="#513D62"/>
<path d="M189.366 323.357C180.795 323.357 173.652 321.738 167.938 318.5C162.223 315.262 158.033 310.976 155.366 305.643C152.699 300.119 151.366 294.119 151.366 287.643C151.366 279.452 153.176 272.786 156.795 267.643C160.604 262.5 165.461 258.31 171.366 255.072C177.271 251.833 183.461 249.167 189.938 247.072C196.604 244.976 202.89 242.976 208.795 241.072C214.89 238.976 219.747 236.595 223.366 233.929C227.176 231.072 229.08 227.452 229.08 223.072V200.786C229.08 195.833 228.223 191.452 226.509 187.643C224.985 183.643 222.509 180.595 219.08 178.5C215.842 176.405 211.557 175.357 206.223 175.357C202.414 175.357 198.604 175.929 194.795 177.072C190.985 178.024 187.842 179.738 185.366 182.214C190.699 184.119 194.795 187.072 197.652 191.072C200.699 194.881 202.223 199.262 202.223 204.214C202.223 210.691 199.938 215.833 195.366 219.643C190.985 223.452 185.747 225.357 179.652 225.357C172.795 225.357 167.557 223.262 163.938 219.072C160.509 214.691 158.795 209.452 158.795 203.357C158.795 197.833 160.128 193.262 162.795 189.643C165.652 186.024 169.557 182.595 174.509 179.357C179.842 176.31 186.223 173.929 193.652 172.214C201.271 170.5 209.461 169.643 218.223 169.643C226.985 169.643 234.89 170.595 241.938 172.5C248.985 174.214 254.89 177.452 259.652 182.214C264.033 186.595 266.89 192.024 268.223 198.5C269.557 204.786 270.223 212.786 270.223 222.5V300.214C270.223 304.976 270.699 308.31 271.652 310.214C272.604 311.929 274.223 312.786 276.509 312.786C278.223 312.786 279.842 312.31 281.366 311.357C283.08 310.405 284.89 309.262 286.795 307.929L289.652 312.786C285.652 316.214 280.985 318.881 275.652 320.786C270.509 322.5 264.699 323.357 258.223 323.357C251.176 323.357 245.557 322.405 241.366 320.5C237.176 318.405 234.128 315.643 232.223 312.214C230.509 308.786 229.652 304.786 229.652 300.214C225.08 307.452 219.557 313.167 213.08 317.357C206.604 321.357 198.699 323.357 189.366 323.357ZM209.652 305.072C213.461 305.072 216.89 304.214 219.938 302.5C223.176 300.595 226.223 297.548 229.08 293.357V234.786C227.366 237.643 224.985 240.214 221.938 242.5C218.89 244.786 215.652 247.167 212.223 249.643C208.795 251.929 205.461 254.5 202.223 257.357C199.176 260.214 196.699 263.738 194.795 267.929C192.89 272.119 191.938 277.167 191.938 283.072C191.938 290.5 193.557 296.024 196.795 299.643C200.033 303.262 204.318 305.072 209.652 305.072Z" fill="#513D62"/>
<path d="M354.388 169.643C362.388 169.643 369.341 170.691 375.246 172.786C381.341 174.691 385.722 176.595 388.388 178.5C394.865 182.881 398.865 180.024 400.388 169.929H406.388C406.007 175.262 405.722 181.833 405.531 189.643C405.341 197.262 405.246 207.452 405.246 220.214H399.246C398.293 213.167 396.484 206.214 393.817 199.357C391.15 192.5 387.246 186.881 382.103 182.5C377.15 178.119 370.674 175.929 362.674 175.929C357.15 175.929 352.484 177.548 348.674 180.786C344.865 183.833 342.96 188.31 342.96 194.214C342.96 199.929 344.674 204.976 348.103 209.357C351.531 213.548 355.912 217.643 361.246 221.643C366.769 225.452 372.484 229.548 378.388 233.929C384.674 238.691 390.388 243.452 395.531 248.214C400.674 252.786 404.769 257.833 407.817 263.357C410.865 268.881 412.388 275.452 412.388 283.072C412.388 291.643 409.912 299.167 404.96 305.643C400.007 311.929 393.436 316.786 385.246 320.214C377.246 323.643 368.293 325.357 358.388 325.357C352.674 325.357 347.531 324.786 342.96 323.643C338.579 322.5 334.769 321.072 331.531 319.357C329.055 318.214 326.674 317.167 324.388 316.214C322.293 315.072 320.293 314.119 318.388 313.357C316.484 312.786 314.769 313.452 313.246 315.357C311.912 317.262 310.865 319.929 310.103 323.357H304.103C304.484 317.262 304.769 309.833 304.96 301.072C305.15 292.31 305.246 280.691 305.246 266.214H311.246C312.388 276.5 314.484 285.643 317.531 293.643C320.579 301.452 324.674 307.643 329.817 312.214C335.15 316.595 341.817 318.786 349.817 318.786C353.055 318.786 356.198 318.119 359.246 316.786C362.293 315.452 364.769 313.262 366.674 310.214C368.769 307.167 369.817 303.262 369.817 298.5C369.817 290.119 367.055 283.167 361.531 277.643C356.198 272.119 349.341 266.119 340.96 259.643C334.865 254.691 329.055 249.833 323.531 245.072C318.198 240.119 313.817 234.786 310.388 229.072C306.96 223.167 305.246 216.5 305.246 209.072C305.246 200.5 307.531 193.262 312.103 187.357C316.674 181.452 322.674 177.072 330.103 174.214C337.722 171.167 345.817 169.643 354.388 169.643Z" fill="#513D62"/>
</svg>
